<svg xmlns="http://www.w3.org/2000/svg" width="14" height="16" viewBox="0 0 14 16">
  <g id="Grupo_1" data-name="Grupo 1" transform="translate(-647 -371)">
    <g id="Polígono_1" data-name="Polígono 1" transform="translate(647 371)" fill="#4cd631" stroke-linecap="round" stroke-linejoin="round">
      <path d="M 12.97768115997314 8.500003814697266 L 1.022320985794067 8.500003814697266 L 7.000000953674316 0.814413845539093 L 12.97768115997314 8.500003814697266 C 12.97767543792725 8.5 12.97767543792725 8.500001907348633 12.97767448425293 8.500003814697266 L 12.97768115997314 8.500003814697266 Z" stroke="none"/>
      <path d="M 6.999995231628418 1.628824234008789 L 2.044633865356445 8.000003814697266 L 11.95536613464355 8.000003814697266 L 6.999995231628418 1.628824234008789 M 6.999999523162842 0.3144092559814453 C 7.147293567657471 0.3144092559814453 7.294586181640625 0.378753662109375 7.394670963287354 0.5074434280395508 L 13.3723611831665 8.193034172058105 C 13.62780094146729 8.521453857421875 13.39375114440918 9.000003814697266 12.97768115997314 9.000003814697266 L 1.022320747375488 9.000003814697266 C 0.6062412261962891 9.000003814697266 0.3722009658813477 8.521453857421875 0.6276407241821289 8.193034172058105 L 6.605320930480957 0.5074434280395508 C 6.705410957336426 0.378753662109375 6.852705955505371 0.3144092559814453 6.999999523162842 0.3144092559814453 Z" stroke="none" fill="#4cd631"/>
    </g>
    <rect id="Retângulo_1" data-name="Retângulo 1" width="8" height="7" transform="translate(650 380)" fill="#4cd631"/>
  </g>
</svg>
